<?xml version="1.0" encoding="UTF-8"?><svg id="Layer_1" xmlns="http://www.w3.org/2000/svg" viewBox="0 0 144 144"><defs><style>.cls-1{fill:#004f80;}.cls-2{fill:#006297;}.cls-3{fill:#93d1e6;}.cls-4{stroke:#fff;stroke-linejoin:round;stroke-width:2px;}.cls-4,.cls-5{fill:none;stroke-linecap:round;}.cls-5{stroke:#93d1e6;stroke-miterlimit:10;stroke-width:1.75px;}</style></defs><g><g><circle class="cls-1" cx="72" cy="72" r="72"/><path class="cls-2" d="M135,72c0,17.81-7.39,33.9-19.28,45.35-.66,.65-1.35,1.27-2.05,1.89-11.1,9.81-25.69,15.77-41.68,15.77s-30.56-5.95-41.66-15.77c-.71-.6-1.4-1.24-2.06-1.89-11.88-11.45-19.27-27.54-19.27-45.35,0-34.79,28.2-62.99,62.99-62.99s63.01,28.2,63.01,62.99Z"/></g><g id="lfwufS.tif"><path class="cls-1" d="M41.88,118.99c.38,.11,.77,.18,1.12,.35,.3,.15,.6,.26,.81,0,.28-.36,.9-.55,.64-1.24-.17-.45-.24-.94-.34-1.42-.06-.27,.08-.42,.34-.39,.3,.03,.61,.07,.9,.16,.26,.09,.51,.24,.73,.41,.49,.37,.98,.44,1.56,.2,.35-.15,.75-.18,1.18-.28-.01,.68-.28,1.32,.48,1.69,.21-.34,.4-.7,.64-1.02,.34-.45,.44-.89,.15-1.39-.24-.41,0-.67,.32-.93,.05,.19,.09,.34,.14,.49,.24,.65,.66,.89,1.32,.73,.53-.13,1.06-.26,1.58-.42,.35-.11,.62-.05,.94,.13,1.13,.63,2.28,1.25,3.44,1.82,.38,.18,.74,.26,.88,.76,.08,.29,.4,.51,.67,.84,.32-.36,.71-.62,.84-.98,.28-.79,.79-1.4,1.29-2.03,.25-.31,.52-.51,.92-.52,.48-.01,.85-.25,1.21-.55,.41-.33,.89-.57,1.34-.85,.72,1.4,1.63,2.37,3.3,2.29-.05,.16-.08,.29-.12,.42-.04,.13-.07,.26-.11,.38,.68,.31,.69,.32,1.04-.24,.11-.17,.19-.38,.2-.58,.02-.37,.18-.51,.54-.57,.59-.1,.81-.37,.84-1,.02-.37,.04-.74,0-1.11-.04-.49,.1-.75,.61-.91,.67-.21,.82-.58,.67-1.25-.05-.23-.03-.47-.04-.74,1.06,.5,1.36,.45,2.15-.26-.29-.33-.59-.65-.96-1.06,.66-.06,.98,.14,1.31,.5,.56,.62,.91,1.32,1.09,2.12,.04,.2,.12,.47,.27,.54,.65,.33,1.33,.59,2,.88,.31,.14,.62,.26,.91,.44,.32,.19,.61,.43,.83,.58,.35-.24,.57-.43,.82-.57,.35-.19,.75-.32,1.08-.54,.2-.14,.43-.37,.47-.6,.2-.96,.33-1.94,.48-2.91,.12-.75,.48-1.39,1.07-1.82,.47-.34,.91-.97,1.67-.62,.05,.02,.14,0,.2-.03,.46-.17,.86-.39,1.21-.79,.63-.73,.89-1.56,1.07-2.47,.17-.87,.59-1.23,1.47-1.38,.18-.03,.4-.09,.51-.21,.61-.69,1.22-1.4,1.78-2.13,.12-.15,.1-.45,.07-.66-.16-1.08-.35-2.16-.53-3.25,1.25-.34,2.38-.39,3.52-.18,.27,.05,.55,.2,.74,.4,.52,.52,.99,.62,1.63,.26,.72-.4,1.44-.81,2.16-1.21,1.03-.58,2.11-.96,3.31-.77,.42,.06,.57-.14,.65-.49,.12-.57,.25-1.13,.4-1.83-.36-.14-.83-.34-1.42-.57,.1-.26,.14-.58,.32-.75,.48-.44,.44-.85,.08-1.31-.1-.12-.16-.27-.23-.41-.3-.54-.22-1.3,.28-1.66,.38-.27,.41-.59,.41-.99,.08-10.41,.17-20.82,.25-31.24,.08-10.32,.16-20.65,.24-30.97,0-.2,0-.41,0-.63-.27-.02-.45-.05-.64-.05-2.39-.02-4.78-.05-7.16-.05-9.96-.01-19.91-.01-29.87-.02-.66,0-1.27,.12-1.86,.46-.8,.47-1.63,.89-2.48,1.28-1.85,.85-3.75,1.49-5.84,1.26-.77-.08-1.62-.07-1.81-1.12,0-.04-.07-.07-.13-.12-.87,.44-1.09-.52-1.7-.86,0,.66,0,1.23,0,1.81-.05,13.59-.1,27.18-.15,40.77-.02,4.39-.03,8.78-.06,13.17,0,.24-.12,.62-.29,.7-1.01,.47-1.27,1.23-1.02,2.26,.25,.99-.09,1.76-.89,2.39-.46,.36-.42,1.07,0,1.46,.57,.52,.98,1.13,1.18,1.89,.11,.39,.26,.83,.53,1.12,.52,.57,.47,1.15,.27,1.8-.09,.27-.15,.58-.12,.86,.06,.45,.18,.9,.35,1.31,.26,.63,.33,1.24,.07,1.88-.08,.19-.07,.42-.16,.61-.09,.19-.21,.44-.38,.52-.9,.43-1.3,1.17-1.4,2.12,0,.1-.05,.22-.13,.28-.52,.42-.53,.91-.28,1.49,.06,.15-.03,.49-.16,.57-.6,.37-1.24,.68-1.86,1.01,.33,.77-.05,1.37-.53,1.74-.61,.47-.9,1.04-1.09,1.72-.04,.16-.11,.31-.18,.53-.6-.82-.72-.06-.98,.23-.15-.15-.26-.28-.38-.4-.61,.29-.75,.87-.99,1.39-.32,.7-.26,.93,.32,1.45,.5,.45,.43,.87-.18,1.2-.35,.19-.67,.45-1.07,.72,.44,.14,.75,.25,1.19,.39-.55,.34-.99,.61-1.34,.83-.07,1.11-.13,2.16-.19,3.22-.37,.12-.75,.25-1.15,.39,.4,.54,.77,1.03,1.17,1.57l.02,.59Z"/></g><g id="lfwufS.tif-2"><path class="cls-4" d="M102.79,81.03c0-.2,.44-56.18,.44-56.41-.27-.02-.45-.05-.64-.05-2.39-.02-4.78-.05-7.16-.05-9.96-.01-19.91-.01-29.87-.02-.66,0-1.27,.12-1.86,.46-.8,.47-1.63,.89-2.48,1.28-1.85,.85-3.75,1.49-5.84,1.26-.77-.08-1.62-.07-1.81-1.12,0-.04-.07-.07-.13-.12-.87,.44-1.09-.52-1.7-.86,0,.66,0,29.53,0,30.11l-.15,8.9c-.02,4.39-.03,12.35-.06,16.74,0,.24-.12,.62-.29,.7-1.01,.47-1.27,1.23-1.02,2.26,.25,.99-.09,1.76-.89,2.39-.46,.36-.42,1.07,0,1.46,.57,.52,.98,1.13,1.18,1.89,.11,.39,.26,.83,.53,1.12,.52,.57,.47,1.15,.27,1.8-.09,.27-.15,.58-.12,.86,.06,.45,.18,.9,.35,1.31,.26,.63,.33,1.24,.07,1.88-.08,.19-.07,.42-.16,.61-.09,.19-.21,.44-.38,.52-.9,.43-1.3,1.17-1.4,2.12,0,.1-.05,.22-.13,.28-.52,.42-.53,.91-.28,1.49,.06,.15-.03,.49-.16,.57-.6,.37-1.24,.68-1.86,1.01,.33,.77-.05,1.37-.53,1.74-.61,.47-.9,1.04-1.09,1.72-.04,.16-.11,.31-.18,.53-.6-.82-.72-.06-.98,.23-.15-.15-.26-.28-.38-.4-.61,.29-.75,.87-.99,1.39-.32,.7-.26,.93,.32,1.45,.5,.45,.43,.87-.18,1.2-.35,.19-.67,.45-1.07,.72,.44,.14,.75,.25,1.19,.39-.55,.34-.99,.61-1.34,.83-.07,1.11-.13,2.16-.19,3.22-.37,.12-.75,.25-1.15,.39,.4,.54,.77,1.03,1.17,1.57l.02,.59c.38,.11,.77,.18,1.12,.35,.3,.15,.6,.26,.81,0,.28-.36,.9-.55,.64-1.24-.17-.45,.61-1.75,.89-1.65,.26,.09,.51,.24,.73,.41,.49,.37,.98,.44,1.56,.2,.35-.15,.75-.18,1.18-.28-.01,.68-.28,1.32,.48,1.69,.21-.34,.4-.7,.64-1.02,.34-.45,.44-.89,.15-1.39-.24-.41,0-.67,.32-.93,.05,.19,.09,.34,.14,.49,.24,.65,.66,.89,1.32,.73,.53-.13,1.06-.26,1.58-.42,.35-.11,.62-.05,.94,.13,1.13,.63,2.28,1.25,3.44,1.82,.38,.18,.74,.26,.88,.76,.08,.29,.4,.51,.67,.84,.32-.36,.71-.62,.84-.98,.28-.79,.79-1.4,1.29-2.03,.25-.31,.52-.51,.92-.52,.48-.01,.85-.25,1.21-.55,.41-.33,.89-.57,1.34-.85,.72,1.4,1.63,2.37,3.3,2.29-.05,.16-.08,.29-.12,.42-.04,.13-.07,.26-.11,.38,.68,.31,.69,.32,1.04-.24,.11-.17,.19-.38,.2-.58,.02-.37,.18-.51,.54-.57,.59-.1,.81-.37,.84-1,.02-.37,.04-.74,0-1.11-.04-.49,.1-.75,.61-.91,.67-.21,.82-.58,.67-1.25-.05-.23-.03-.47-.04-.74,1.06,.5,1.36,.45,2.15-.26-.29-.33-.59-.65-.96-1.06,.66-.06,.98,.14,1.31,.5,.56,.62,.91,1.32,1.09,2.12,.04,.2,.12,.47,.27,.54,.65,.33,1.33,.59,2,.88,.31,.14,.62,.26,.91,.44,.32,.19,.61,.43,.83,.58,.35-.24,.57-.43,.82-.57,.35-.19,.75-.32,1.08-.54,.2-.14,.43-.37,.47-.6,.2-.96,.33-1.94,.48-2.91,.12-.75,.48-1.39,1.07-1.82,.47-.34,.91-.97,1.67-.62,.05,.02,.14,0,.2-.03,.46-.17,.86-.39,1.21-.79,.63-.73,.89-1.56,1.07-2.47,.17-.87,.59-1.23,1.47-1.38,.18-.03,.4-.09,.51-.21,.61-.69,1.22-1.4,1.78-2.13,.12-.15,.1-.45,.07-.66-.16-1.08-.35-2.16-.53-3.25,1.25-.34,2.38-.39,3.52-.18,.27,.05,.55,.2,.74,.4,.52,.52,.99,.62,1.63,.26,.72-.4,1.44-.81,2.16-1.21,1.03-.58,2.11-.96,3.31-.77,.42,.06,.57-.14,.65-.49,.12-.57,.25-1.13,.4-1.83-.36-.14-.83-.34-1.42-.57,.1-.26,.14-.58,.32-.75,.48-.44,.44-.85,.08-1.31-.1-.12-.16-.27-.23-.41-.3-.54-.22-1.3,.28-1.66,.38-.27,.41-.59,.41-.99l.05-6.43Z"/></g></g><path class="cls-5" d="M100.98,114.3c0,.51-.41,.92-.92,.92s-.92-.41-.92-.92,.41-.92,.92-.92,.92,.41,.92,.92Z"/><path class="cls-5" d="M116.1,45.48c0,.51-.41,.92-.92,.92s-.92-.41-.92-.92,.41-.92,.92-.92,.92,.41,.92,.92Z"/><path class="cls-5" d="M124.53,61.94c0,.51-.41,.92-.92,.92s-.92-.41-.92-.92,.41-.92,.92-.92,.92,.41,.92,.92Z"/><path class="cls-5" d="M19.32,72.92c0,.51-.41,.92-.92,.92s-.92-.41-.92-.92,.41-.92,.92-.92,.92,.41,.92,.92Z"/><path class="cls-5" d="M33.12,92.88c0,.51-.41,.92-.92,.92s-.92-.41-.92-.92,.41-.92,.92-.92,.92,.41,.92,.92Z"/><path class="cls-5" d="M41.61,65.34c0,.51-.41,.92-.92,.92s-.92-.41-.92-.92,.41-.92,.92-.92,.92,.41,.92,.92Z"/><path class="cls-3" d="M37.42,52.77c-.14,0-.28-.03-.4-.11l-3.89-2.04-3.9,2.04c-.29,.16-.64,.13-.9-.07-.26-.19-.4-.51-.34-.84l.74-4.34-3.16-3.08c-.23-.22-.32-.57-.22-.88,.11-.31,.38-.54,.7-.59l4.36-.63,1.95-3.95c.15-.3,.44-.48,.77-.48h0c.32,0,.63,.18,.77,.48l1.94,3.95,4.36,.63c.32,.05,.59,.28,.69,.59,.1,.31,.02,.65-.22,.88l-3.15,3.08,.74,4.34c.05,.32-.08,.65-.34,.84-.15,.11-.33,.17-.51,.17Zm-9.4-8.44l2.23,2.17c.2,.2,.3,.48,.25,.76l-.53,3.08,2.75-1.46c.25-.13,.55-.13,.8,0l2.75,1.46-.53-3.08c-.05-.28,.05-.56,.24-.76l2.23-2.17-3.08-.44c-.28-.04-.52-.22-.65-.48l-1.38-2.79-1.38,2.79c-.13,.25-.37,.44-.65,.48l-3.08,.44Z"/><path class="cls-3" d="M124.58,91.96c-.14,0-.28-.03-.4-.11l-3.89-2.04-3.9,2.04c-.29,.16-.64,.13-.9-.07-.26-.19-.4-.51-.34-.84l.74-4.34-3.16-3.08c-.23-.22-.32-.57-.22-.88,.11-.31,.38-.54,.7-.59l4.36-.63,1.95-3.95c.15-.3,.44-.48,.77-.48h0c.32,0,.63,.18,.77,.48l1.94,3.95,4.36,.63c.32,.05,.59,.28,.69,.59,.1,.31,.02,.65-.22,.88l-3.15,3.08,.74,4.34c.05,.32-.08,.65-.34,.84-.15,.11-.33,.17-.51,.17Zm-9.4-8.44l2.23,2.17c.2,.2,.3,.48,.25,.76l-.53,3.08,2.75-1.46c.25-.13,.55-.13,.8,0l2.75,1.46-.53-3.08c-.05-.28,.05-.56,.24-.76l2.23-2.17-3.08-.44c-.28-.04-.52-.22-.65-.48l-1.38-2.79-1.38,2.79c-.13,.25-.37,.44-.65,.48l-3.08,.44Z"/></svg>